<svg width="256" height="28" viewBox="0 0 256 28" fill="none" xmlns="http://www.w3.org/2000/svg">
<path d="M51.3 0.699341L48.5 5.26075H45.8L44.9 6.56401H47.7L41.6 16.2454C40.3 18.2933 41.2 20.1551 43.7 20.1551C45.5 20.1551 47.4 18.945 49.3 17.2694C49.3 20.8068 54.6 21.4584 57.9 17.7348H58.6C60.4 17.7348 63.2 16.7108 64.8 15.0352C64.6 14.6628 64.1 14.1974 63.7 14.1043L63.5 14.2905C62.1 15.6868 60.5 16.3385 58.9 16.3385L61.7 11.8701C63.5 8.98435 61.8 6.19165 59 6.19165C56.7 6.19165 54.9 7.02946 53.1 9.82216L51.6 12.2425L50.4 14.1974L50.2 14.3836C48 16.7108 45.9 18.5726 44.6 18.5726C43.9 18.5726 43.6 18.1072 44.3 17.0832L50.8 6.6571H53.3L54 5.26075H51.5L54.3 0.699341H51.3ZM58.8 7.96036C59.8 8.05345 60.2 9.17053 59.2 10.7531L57 14.1974H56.9C55.9 14.1974 55.1 14.9421 55.1 15.873C55.1 16.2454 55.2 16.5246 55.4 16.8039V16.897C54 19.1312 50.5 18.7588 52.3 15.873L54.6 12.2425L56.1 10.0083C57 8.5189 58.1 7.96036 58.8 7.96036ZM80.8 0.699341L78 5.26075H75.3L74.4 6.56401H77.2L71 16.2454C69.7 18.2933 70.6 20.1551 73.1 20.1551C74.3 20.1551 75.6 19.5966 77 18.6657L76.2 19.8759H79.2L83.8 12.5218C88.4 7.12255 90.5 7.86727 89.2 9.91525L85.3 16.1523C84 18.2003 84.9 20.0621 87.4 20.0621C89.2 20.0621 91.2 18.7588 93.1 17.0832C93.2 18.8519 94.8 20.0621 97.2 20.0621C100.6 20.0621 104 17.6417 106.5 14.9421C106.3 14.5697 105.8 14.1043 105.4 14.0112L105.2 14.1974C103 16.5246 100.2 18.3864 98.1 18.3864C96.2 18.3864 95.1 17.3624 96.5 15.0352L96.8 14.5697C98.7 15.3145 102.4 14.9421 104.7 11.4047L105.1 10.7531C106.7 8.14654 105.2 6.28474 102.7 6.28474C100.3 6.28474 98.3 7.49491 97 9.4498L94.1 14.1043L93.9 14.2905C91.7 16.6177 89.6 18.4795 88.3 18.4795C87.6 18.4795 87.3 18.0141 87.9 16.9901L92.3 10.0083C93.6 7.86727 92.4 6.37783 90.7 6.37783C89.4 6.37783 88 7.02946 86.5 8.5189L91.3 0.792433H88.3L79.9 14.1974L79.7 14.3836C77.5 16.7108 75.4 18.5726 74.1 18.5726C73.4 18.5726 73.1 18.1072 73.8 17.0832L80.3 6.6571H82.8L83.7 5.35384H81.2L84 0.792433L80.8 0.699341ZM102.1 8.33272C103.1 8.23963 103.6 9.17053 102.6 10.7531L102.2 11.4047C100.8 13.6388 98.8 13.6388 97.7 13.2665L99.6 10.1014C100.3 8.98435 101.3 8.42581 102.1 8.33272ZM146.4 3.30586C144.7 4.70221 144.5 6.28474 145.6 7.588L145.9 7.86727C144.6 9.63598 142.8 11.9632 140.8 14.1043L140.6 14.2905C139.2 15.6868 137.6 16.3385 136 16.3385L138.8 11.8701C140.6 8.98435 138.9 6.19165 136.1 6.19165C133.8 6.19165 132 7.02946 130.2 9.82216L128.7 12.2425L127.5 14.1974L127.3 14.3836C124.8 16.9901 122.7 18.7588 120.3 19.6897L127.1 9.07744H125.3C125.3 7.96036 124 6.37783 122.1 6.37783C120.5 6.37783 118.2 7.588 116.9 9.54289L112.7 16.2454C111.4 18.2933 112.3 20.1551 114.8 20.1551C115.6 20.1551 116.7 19.7828 117.7 19.2242L116.9 20.5275C112.8 21.6446 110.3 23.2271 110.3 25.2751C110.3 27.9747 114.7 28.5332 116.9 25.0889L119.2 21.4584C121.6 20.8068 124 19.5035 126.4 17.2694C126.4 20.8068 131.7 21.5515 135 17.7348H135.7C137.5 17.7348 140.3 16.7108 141.9 15.0352C143.3 13.4527 144.5 12.0563 146.9 9.07744L147.3 9.54289C147.7 10.0083 147.8 10.5669 147.5 11.1254L144.3 16.2454C143 18.2933 143.9 20.1551 146.4 20.1551C147.9 20.1551 149.6 19.2242 151.2 17.921C151.1 19.2242 152.1 20.1551 153.8 20.1551C154.6 20.1551 155.7 19.7828 156.7 19.2242L155.9 20.5275C151.8 21.6446 149.3 23.2271 149.3 25.2751C149.3 27.9747 153.7 28.5332 155.9 25.0889L158.2 21.4584C160.7 20.7137 163.1 19.4104 165.6 17.1763C165.7 18.945 167.3 20.1551 169.7 20.1551C172.2 20.1551 174.6 18.8519 176.7 17.1763C176.6 20.8068 182 21.5515 185.3 17.7348H186C186.9 17.7348 188.2 17.4555 189.4 16.897C188.6 18.8519 189.3 20.1551 191.1 20.1551C192.8 20.1551 194.6 18.7588 196.1 17.4555C195.8 18.945 196.8 20.1551 198.7 20.1551C201.2 20.1551 204.1 17.7348 206.6 15.0352C208.3 13.1734 209.8 11.3116 210.9 10.0083C209.7 12.8941 210.3 18.1072 207.5 18.1072C206.5 18.1072 206.1 17.0832 206.1 17.0832L204.2 18.0141C204.2 18.0141 204.8 20.2482 207.5 20.2482C207.8 20.2482 208.1 20.2482 208.3 20.1551H208.4C211.5 19.7828 214.5 17.5486 216.8 15.1283C216.6 14.6628 216.1 14.2905 215.7 14.1974L215.5 14.3836C214.4 15.5006 213.2 16.5246 211.9 17.3624C212.9 14.7559 212.7 10.66 214.5 7.12255L212.2 6.00547C211 7.588 208.2 11.2185 205.5 14.1043L205.3 14.2905C203.1 16.6177 201 18.4795 199.7 18.4795C199 18.4795 198.7 18.0141 199.4 16.9901L205.8 6.56401H202.8L197.4 15.2214C195.1 17.1763 193.3 18.2003 192.8 18.0141C192 17.7348 192.8 16.7108 193.2 16.0592L199.1 6.56401H196.1L191.4 14.1043L191.2 14.2905C189.8 15.6868 188.2 16.3385 186.6 16.3385L189.4 11.8701C191.2 8.98435 189.5 6.19165 186.7 6.19165C184.4 6.19165 182.6 7.02946 180.8 9.82216L179.3 12.2425L178.1 14.1974L177.9 14.3836C175.7 16.7108 172.9 18.5726 170.8 18.5726C168.9 18.5726 167.8 17.5486 169.2 15.2214L169.5 14.7559C171.4 15.5006 175.1 15.1283 177.4 11.5909L177.8 10.9392C179.4 8.33272 177.9 6.47092 175.4 6.47092C173 6.47092 171 7.68109 169.7 9.63598L166.8 14.2905L166.6 14.4767C164.1 17.0832 162 18.8519 159.6 19.7828L166.4 9.17053H164.6C164.6 8.05345 163.3 6.47092 161.4 6.47092C159.8 6.47092 157.5 7.68109 156.2 9.63598L153.3 14.1974L153.1 14.3836C150.9 16.7108 148.8 18.5726 147.5 18.5726C146.8 18.5726 146.5 18.1072 147.2 17.0832L150.2 12.2425C151.2 10.5669 150.8 9.54289 149.8 8.5189L148.1 6.6571C147.7 6.19165 147.7 5.63311 148.3 5.07457L146.4 3.30586ZM136.1 7.96036C137.1 8.05345 137.6 9.17053 136.5 10.7531L134.3 14.1974H134.2C133.2 14.1974 132.4 14.9421 132.4 15.873C132.4 16.2454 132.5 16.5246 132.7 16.8039V16.897C131.3 19.1312 127.8 18.7588 129.6 15.873L131.9 12.2425L133.4 10.0083C134.3 8.5189 135.3 7.96036 136.1 7.96036ZM186.3 7.96036C187.3 8.05345 187.8 9.17053 186.7 10.7531L184.5 14.1974H184.4C183.4 14.1974 182.6 14.9421 182.6 15.873C182.6 16.2454 182.7 16.5246 182.9 16.8039V16.897C181.5 19.1312 178 18.7588 179.8 15.873L182.1 12.2425L183.6 10.0083C184.4 8.5189 185.5 7.96036 186.3 7.96036ZM174.6 8.33272C175.6 8.23963 176.1 9.17053 175.1 10.7531L174.7 11.4047C173.2 13.6388 171.3 13.6388 170.2 13.2665L172.1 10.1014C172.8 8.98435 173.8 8.42581 174.6 8.33272ZM122.2 8.5189C123.2 8.5189 123.9 9.35671 123 10.7531L120.7 14.4767C118.9 17.1763 117 18.4795 115.8 18.4795C115.1 18.4795 114.8 18.0141 115.5 16.9901L119.7 10.1945C120.4 9.07744 121.4 8.5189 122.2 8.5189ZM161.1 8.5189C162.1 8.5189 162.8 9.35671 161.9 10.7531L159.6 14.4767C157.8 17.1763 155.9 18.4795 154.7 18.4795C154 18.4795 153.7 18.0141 154.4 16.9901L158.6 10.1945C159.3 9.07744 160.3 8.5189 161.1 8.5189ZM115.8 22.3893L114.4 24.6235C113.8 25.6475 112.7 25.4613 112.7 24.7166C112.7 24.0649 113.5 23.2271 115.8 22.3893ZM154.7 22.3893L153.3 24.6235C152.7 25.6475 151.6 25.4613 151.6 24.7166C151.7 24.0649 152.4 23.2271 154.7 22.3893ZM0 11.5909H28.9V13.3596H0V11.5909ZM227.1 11.5909H256V13.3596H227.1V11.5909Z" fill="#766458"/>
</svg>
