<svg width="457" height="199" viewBox="0 0 457 199" fill="none" xmlns="http://www.w3.org/2000/svg">
<path d="M380.7 70.5953L406.1 1.70873H431.3L457 70.5953H436.8L433.1 58.1213H404.5L400.7 70.5953H380.7ZM416.4 22.0954L408.9 44.9025H429L421.5 22.0954C421.1 20.9784 420.7 19.8613 420.3 18.7442C420 17.534 419.7 16.4169 419.5 15.2068C419.3 14.7413 419.2 14.369 419.2 13.9966C419.1 13.5312 419 13.1588 419 12.7864C418.9 13.1588 418.8 13.5312 418.7 13.9966C418.6 14.369 418.5 14.7413 418.5 15.2068C418.4 15.393 418.4 15.486 418.4 15.6722C418.4 15.7653 418.4 15.8584 418.3 15.9515C418.1 16.9755 417.8 18.0926 417.5 19.1166C417 20.0475 416.7 21.0715 416.4 22.0954ZM298.7 70.5953V1.70873H318.2L346.1 37.0829C346.8 38.1069 347.5 39.224 348.1 40.3411C348.8 41.4581 349.5 42.5752 350.1 43.6923L351.5 46.485C352 47.4159 352.4 48.3468 352.9 49.1846C352.8 48.4399 352.7 47.6952 352.6 46.9505C352.5 46.2057 352.4 45.461 352.4 44.7163C352.2 43.2269 352.1 41.7374 352.1 40.248C352 38.6655 352 37.176 352 35.5935V1.80183H371.4V70.6884H352L323.9 35.128C323.1 34.2902 322.4 33.2662 321.7 32.0561C321 30.8459 320.3 29.5426 319.7 28.2394C319.3 27.3085 318.8 26.4707 318.3 25.5398C317.9 24.702 317.6 23.7711 317.1 22.9332C317.5 25.1674 317.8 27.4016 318 29.7288C318.2 32.0561 318.3 34.3833 318.3 36.6175V70.5953H298.7ZM210.7 19.4889C214.3 13.345 219.2 8.69048 225.6 5.43233C232 2.17418 238.6 0.591655 245.5 0.591655C246.4 0.591655 247.4 0.591661 248.3 0.684751C249.3 0.777841 250.3 0.870928 251.2 0.870928C254.1 1.24329 256.9 1.89492 259.7 2.82582C262.6 3.75672 265.3 4.96689 267.8 6.45633C273.3 9.80756 277.6 14.1828 280.6 19.7682C283.6 25.2605 285.1 30.939 285.1 36.9898C285.1 37.7346 285.1 38.4793 285 39.224C285 39.9687 284.9 40.6203 284.8 41.3651C284.6 42.9476 284.3 44.437 283.9 45.9265C283.5 47.4159 283 48.8123 282.4 50.2086C279.1 57.1904 274.1 62.6827 267.2 66.4994C260.3 70.316 253.1 72.2709 245.5 72.2709C245 72.2709 244.4 72.2709 243.9 72.1778H242.4C239.7 71.9917 237.1 71.5262 234.5 70.8746C231.9 70.2229 229.4 69.2921 227.1 68.175C220.6 65.0099 215.5 60.5416 211.8 54.6769C208.1 48.8123 206.2 42.6683 206.2 36.3382C206.2 35.4073 206.2 34.4764 206.3 33.5455C206.4 32.6146 206.5 31.5906 206.8 30.6597C207.2 28.7979 207.7 26.843 208.4 25.0743C208.8 23.0263 209.7 21.2576 210.7 19.4889ZM263.5 44.2509C263.7 43.5061 263.9 42.7614 264.1 42.0167C264.3 41.1789 264.5 40.4342 264.6 39.5964C264.7 39.1309 264.7 38.5724 264.7 38.1069C264.8 37.6415 264.8 37.176 264.8 36.7106C264.8 36.2451 264.8 35.8728 264.7 35.4073V34.104C264.3 31.0321 263.3 28.0532 261.7 25.1674C260.1 22.2816 257.8 20.0475 255 18.4649C254.2 18.0926 253.5 17.8133 252.7 17.534C251.9 17.2548 251.2 16.9755 250.4 16.7893C249.6 16.6031 248.9 16.51 248.1 16.51C247.3 16.3239 246.6 16.3239 245.8 16.3239C241.9 16.3239 238.2 17.4409 234.9 19.7682C231.6 22.0954 229.2 25.1674 227.9 28.9841L227.7 29.4495V29.915C227.5 30.5666 227.3 31.3113 227.1 31.963C226.9 32.6146 226.8 33.2662 226.6 34.011L226.4 35.5004V37.7346C226.4 37.9207 226.4 38.2 226.5 38.4793C226.7 42.296 228 45.9265 230.2 49.3708C232.5 52.722 235.7 54.9562 239.7 56.0733L241.1 56.5387C241.6 56.6318 242.1 56.7249 242.6 56.7249L244 56.9111H245.4C249.5 56.9111 253.2 55.794 256.4 53.5599C259.7 51.1395 262.1 48.0675 263.5 44.2509ZM181.4 64.1721C177.8 66.4994 173.8 68.0819 169.6 68.9197C165.4 69.7575 161 70.316 156.7 70.5022C155.5 70.5953 154.2 70.5953 153 70.5953H129.2V1.70873H154.3C155.5 1.70873 156.7 1.70874 157.9 1.80183C162.1 1.98801 166.2 2.54654 170.2 3.38435C174.3 4.22216 178.1 5.89779 181.5 8.13195C185.8 10.9246 189.2 14.6482 191.6 19.3027C194 23.9572 195.4 28.7048 195.7 33.5455C195.8 34.011 195.8 34.3833 195.8 34.8488V37.5484C195.6 42.6683 194.3 47.6021 191.9 52.3497C189.5 57.0973 185.9 61.1001 181.4 64.1721ZM149 55.1424C149.2 55.1424 149.5 55.1424 149.7 55.2355H150.5C150.8 55.2355 151.1 55.2355 151.3 55.3286H154.4C155.3 55.2355 156.1 55.1424 156.8 55.1424C158.8 54.9562 160.8 54.6769 162.7 54.2115C164.6 53.746 166.4 52.9082 167.9 51.9773C170.4 50.3017 172.2 48.0675 173.4 45.2748C174.6 42.389 175.3 39.4102 175.3 36.3382V35.5004C175.3 35.2211 175.3 34.9419 175.2 34.6626C175 31.963 174.3 29.2634 173.1 26.7499C171.9 24.1434 170.2 22.0954 168 20.606C166.4 19.3958 164.5 18.558 162.5 18.0926C160.5 17.6271 158.5 17.4409 156.5 17.3478H149V55.1424ZM69.1 70.5953V1.70873H114.5V16.6962H88.9V28.7979H112.9V43.5061H88.9V55.1424H114.4V70.5953H69.1ZM9.70005 48.4399C9.80005 48.533 9.80005 48.6261 9.80005 48.6261C9.90005 48.6261 10 48.6261 10 48.7192C12.1 50.8602 14.5001 52.9082 17.1 54.77C19.7 56.5387 22.8001 57.5627 26.2001 57.6558C26.3001 57.6558 26.4 57.6558 26.4 57.7489H26.7001C26.8001 57.7489 26.9 57.7489 26.9 57.842H28.2001C28.6001 57.7489 28.9001 57.6558 29.2001 57.6558C30.4001 57.4696 31.6001 57.0042 32.7001 56.3526C33.9001 55.7009 34.8001 54.9562 35.4001 53.9322L35.6 53.4668L35.8 53.0013C36 52.5359 36.1 52.0704 36.1 51.605C36.2 51.1395 36.2001 50.7671 36.2001 50.3948C36.2001 48.4399 35.3001 46.8574 33.4001 45.5541C31.7001 44.2509 29.7 43.1338 27.6 42.3891C26.8 42.1098 26.0001 41.9236 25.2001 41.7374C24.5001 41.5512 23.7 41.3651 23 41.1789H22.8C22.7 41.0858 22.6 41.0858 22.6 41.0858C18.8001 40.248 15.2 38.8516 11.9 36.9898C8.60005 35.0349 6.30005 32.2422 5.00005 28.7048C4.80005 27.9601 4.50005 27.2154 4.30005 26.4707C4.10005 25.6329 4.00005 24.7951 4.00005 23.9572C4.00005 23.8642 4.00005 23.5849 4.00005 23.3987V20.7922C4.10005 20.2336 4.20005 19.6751 4.30005 19.0235C4.50005 17.534 4.90005 16.1377 5.50005 14.7413C6.00005 13.345 6.70005 12.0417 7.60005 10.8316C10.1 7.01486 13.3001 4.31525 17.1 2.63963C21.0001 0.964012 25.2 0.126205 29.4 0.126205C30.4 0.126205 31.4001 0.219293 32.4001 0.312383C33.5001 0.405472 34.6001 0.498565 35.7001 0.591655C38.5001 1.05711 41.3001 1.80183 43.9001 2.73273C46.7001 3.75672 49.2 4.96689 51.6 6.27015L45.2001 19.582C43.1001 18.1857 40.9 16.8824 38.6 15.7653C36.3 14.6482 33.8001 14.1828 31.1 14.1828H30.2001C28.4001 14.369 26.8001 15.1137 25.2001 16.4169C23.7001 17.6271 22.9 18.9304 22.9 20.4198V21.0714C23 21.2576 23.1001 21.5369 23.2001 21.7231C23.4001 22.1885 23.6 22.654 24 23.1194C24.4 23.5849 24.8 23.9572 25.3 24.3296C26.2 24.9812 27.4 25.6329 29 26.1914C30.6 26.6568 32.3 27.2154 34.1 27.6808C35.6 28.0532 37.0001 28.4256 38.4001 28.7979C39.8001 29.0772 41.0001 29.3565 41.9001 29.6357C46.2001 31.0321 49.5001 33.4524 51.7001 36.8967C53.9001 40.248 55 43.7854 55.1 47.509V48.0675C55.1 48.533 55.1 48.9054 55 49.3708V50.581C54.5 54.3046 53.2 57.9351 51.1 61.2863C49 64.6375 46.2 67.2441 42.6 69.1059C41.3 69.6644 39.9 70.2229 38.5 70.5953C37.1 70.9677 35.7 71.2469 34.3 71.5262C33.2 71.7124 32 71.8986 30.8 71.9917C29.7 72.1778 28.6 72.1778 27.4 72.1778H26C21.4 71.9917 16.8 71.0608 12.3 69.3851C7.80005 67.6164 3.80005 65.1961 0.300049 62.2172L9.70005 48.4399ZM351.3 185.375C351.3 185.096 351.4 184.817 351.5 184.537C351.6 184.258 351.8 183.979 352 183.793C352.2 183.607 352.5 183.42 352.8 183.234C353.1 183.141 353.5 183.048 353.9 183.048C354.4 183.048 354.8 183.141 355.2 183.327C355.6 183.513 356 183.7 356.3 183.979C356.5 184.258 356.7 184.537 356.9 184.91C357 185.282 357.1 185.654 357.1 186.12C357.1 186.958 356.9 187.609 356.6 188.354C356.3 189.006 355.9 189.657 355.3 190.123C355 190.402 354.8 190.588 354.5 190.774C354.2 190.961 353.9 191.147 353.6 191.24C353.3 191.333 353.1 191.519 352.9 191.612C352.8 191.705 352.7 191.705 352.5 191.798L351.1 189.937C351.3 189.844 351.6 189.75 351.9 189.564C352.2 189.471 352.5 189.285 352.8 189.099C353.1 188.913 353.3 188.633 353.5 188.354C353.7 188.075 353.8 187.796 353.8 187.423C353.2 187.423 352.6 187.237 352.1 186.865C351.5 186.585 351.3 186.12 351.3 185.375ZM359.1 185.375C359.1 185.096 359.2 184.817 359.3 184.537C359.4 184.258 359.6 183.979 359.8 183.793C360 183.607 360.3 183.42 360.6 183.234C360.9 183.141 361.3 183.048 361.7 183.048C362.2 183.048 362.6 183.141 363 183.327C363.4 183.513 363.8 183.7 364.1 183.979C364.3 184.258 364.5 184.537 364.7 184.91C364.8 185.282 364.9 185.654 364.9 186.12C364.9 186.865 364.8 187.609 364.4 188.354C364.1 189.006 363.7 189.657 363.1 190.123C362.8 190.402 362.6 190.588 362.3 190.774C362 190.961 361.7 191.147 361.4 191.24C361.1 191.333 360.9 191.519 360.7 191.612C360.6 191.705 360.5 191.705 360.3 191.798L359 189.937C359.2 189.844 359.5 189.75 359.8 189.564C360.1 189.471 360.4 189.285 360.7 189.099C361 188.913 361.2 188.633 361.4 188.354C361.6 188.075 361.7 187.796 361.7 187.423C361.1 187.423 360.5 187.237 360 186.865C359.3 186.585 359.1 186.12 359.1 185.375ZM94.5 130.731C94.5 131.011 94.4 131.29 94.3 131.569C94.2 131.848 94 132.128 93.8 132.314C93.3 132.779 92.6 133.059 91.9 133.059C91.5 133.059 91 132.966 90.6 132.779C90.2 132.593 89.8 132.407 89.5 132.128C89.2 131.849 89 131.476 88.9 131.197C88.8 130.825 88.7 130.452 88.7 129.987C88.7 129.149 88.9 128.497 89.2 127.753C89.5 127.101 89.9 126.449 90.5 125.984C90.8 125.705 91 125.518 91.3 125.332C91.6 125.146 91.9 124.96 92.2 124.867C92.5 124.774 92.7 124.587 92.9 124.494C93.1 124.401 93.2 124.401 93.3 124.308L94.6 126.17C94.3 126.263 94 126.356 93.8 126.542C93.5 126.635 93.2 126.822 92.9 127.008C92.6 127.194 92.4 127.473 92.2 127.753C92 128.032 91.9 128.311 91.9 128.683C92.6 128.683 93.1 128.87 93.6 129.242C94.3 129.614 94.5 130.08 94.5 130.731ZM86.7 130.731C86.7 131.29 86.5 131.849 86 132.314C85.8 132.5 85.5 132.686 85.2 132.872C84.9 132.966 84.5 133.059 84.1 133.059C83.7 133.059 83.2 132.966 82.8 132.779C82.4 132.593 82 132.407 81.7 132.128C81.4 131.849 81.2 131.476 81.1 131.197C81 130.825 80.9 130.452 80.9 129.987C80.9 129.149 81.1 128.497 81.4 127.753C81.7 127.101 82.1 126.449 82.7 125.984C82.9 125.798 83.2 125.518 83.5 125.332C83.8 125.146 84.1 124.96 84.4 124.867C84.7 124.774 84.9 124.587 85.1 124.494C85.3 124.401 85.4 124.401 85.5 124.308L86.8 126.17C86.6 126.263 86.3 126.356 86 126.542C85.7 126.635 85.4 126.822 85.1 127.008C84.8 127.194 84.6 127.473 84.4 127.753C84.2 128.032 84.1 128.311 84.1 128.683C84.8 128.683 85.3 128.87 85.8 129.242C86.4 129.614 86.7 130.08 86.7 130.731ZM332 183.7H335.8L347.6 164.523H343.8L332 183.7ZM331.9 185.096C330.7 185.096 329.7 186.027 329.7 187.144C329.7 188.261 330.6 189.192 331.9 189.192C333.1 189.192 334.1 188.354 334.1 187.144C334.1 185.934 333.1 185.096 331.9 185.096ZM305.5 179.976L306.6 178.207C311 172.529 313.9 174.111 312.6 176.252L310.8 179.138C309.7 180.907 306.3 182.21 305.5 179.976ZM330.6 182.676C330.4 182.117 329.7 181.559 329.2 181.465L328.9 181.745C327.6 183.234 326 184.444 324.4 185.561C325.6 182.21 325.3 177.09 327.7 172.529L324.9 171.132C323.3 173.087 319.9 177.742 316.5 181.465L316.2 181.745C313.5 184.724 310.8 187.051 309.2 187.051C308.4 187.051 307.6 186.306 307.6 184.724V183.234C310.3 183.513 313.1 181.931 314.8 179.045L315.8 177.463C319.3 171.877 313.6 170.015 309.7 173.274L315.1 164.616H311.3L300.5 182.024C300.3 181.838 300.1 181.745 299.8 181.559L299.5 181.838C296.8 184.817 293.3 187.144 290.6 187.144C288.3 187.144 286.9 185.748 288.6 182.955L292.5 176.625C294.7 173.18 298.5 173.739 296.3 177.37L295.8 178.207H298.9L299.4 177.37C301.4 174.111 299.5 171.691 296.4 171.691C293.3 171.691 290.9 173.18 289.3 175.787L285.6 181.745C285.5 181.745 285.4 181.652 285.4 181.652L285.1 181.931C282.4 184.91 279.7 187.237 278.1 187.237C277.3 187.237 276.8 186.678 277.7 185.282L285.8 172.156H282L275.3 183.048C272.4 185.468 270.2 186.865 269.5 186.492C268.6 186.12 269.5 184.817 270 184.072L277.4 172.063H273.6L266.3 183.886C265.5 184.537 263.9 185.189 263.1 185.654C264.3 182.303 264 177.183 266.4 172.622L263.6 171.226C262 173.18 253.3 183.979 249.9 187.702C250.2 188.168 250.8 188.54 251.3 188.913C253.4 186.585 260.6 178.021 262 176.346C260.5 179.976 261.3 186.585 257.7 186.585C256.4 186.585 255.9 185.282 255.9 185.282L253.5 186.399C253.5 186.399 254.2 189.192 257.6 189.192C258 189.192 258.3 189.192 258.7 189.099H258.8C260.7 188.82 263.4 188.075 265.2 186.865C265.2 188.261 266.1 189.192 267.7 189.192C269.8 189.192 272.1 187.423 273.9 185.841C273.5 187.702 274.7 189.192 277.1 189.192C279.4 189.192 282.1 187.423 284.5 185.096C284.5 187.423 286.5 189.192 289.6 189.192C292.7 189.192 295.7 187.609 298.3 185.468L296.2 188.913H300L304.3 181.931V184.724C304.3 187.702 304.9 189.285 308 189.285C311.1 189.285 314.7 186.213 317.8 182.769C319.9 180.441 321.8 178.021 323.2 176.346C321.7 179.976 322.5 186.585 318.9 186.585C317.6 186.585 317.1 185.282 317.1 185.282L314.7 186.399C314.7 186.399 315.4 189.192 318.8 189.192C319.2 189.192 319.5 189.192 319.9 189.099H320C324 188.633 327.8 185.748 330.6 182.676ZM216 181.652H215.8C214.6 181.652 213.6 182.583 213.6 183.793C213.6 184.258 213.7 184.631 214 185.003V185.096C212.2 187.889 207.9 187.423 210.1 183.7L213 179.045L214.8 176.159C217.5 171.97 221.1 173.646 218.8 177.276L216 181.652ZM190.6 194.87C189.8 196.174 188.5 195.987 188.5 195.057C188.5 194.126 189.4 193.102 192.3 192.078L190.6 194.87ZM161.8 182.024C159.5 185.375 157.3 186.958 155.7 186.958C154.9 186.958 154.4 186.399 155.3 185.003L160.6 176.439C162.6 173.18 166.7 174.018 164.8 177.183L161.8 182.024ZM149.8 168.34C150.9 166.571 152.2 165.733 153.2 165.733C154.6 165.733 155.3 166.571 155.3 167.874C155.3 171.132 150.9 177.928 145.1 177.09H144.3L149.8 168.34ZM242.6 181.465L242.3 181.745C239.6 184.724 236.9 187.051 235.3 187.051C234.5 187.051 234 186.492 234.9 185.096L240.3 176.159C241.9 173.46 240.4 171.598 238.3 171.598C236.7 171.598 235 172.436 233.1 174.204L234.5 171.877H230.7L224.6 181.652C224.4 181.559 224.3 181.465 224.1 181.372L223.8 181.652C222.1 183.42 220 184.258 218.1 184.258L221.7 178.58C224 174.856 221.9 171.412 218.3 171.412C215.4 171.412 213.1 172.529 211 175.973L209.1 178.952L207.5 181.559C207.4 181.465 207.3 181.465 207.2 181.372L206.9 181.652C203.8 185.003 201.1 187.144 198.1 188.354L208.5 171.877H204.7L198 182.676C195.1 185.189 192.8 186.585 192.1 186.306C191.2 185.934 192.1 184.631 192.6 183.886L200 171.877H196.2L190.2 181.559C190.1 181.465 190 181.465 189.9 181.372L189.6 181.652C186.9 184.631 184.2 186.958 182.6 186.958C181.8 186.958 181.3 186.399 182.2 185.003L187.6 176.066C189.2 173.367 187.7 171.505 185.6 171.505C184 171.505 182.3 172.343 180.4 174.111L181.8 171.784H178L172 181.465C171.9 181.372 171.8 181.372 171.6 181.279L171.3 181.559C168.6 184.537 165.9 186.865 164.3 186.865C163.5 186.865 163 186.306 163.9 184.91L170 174.949H167.9C168 173.46 166.4 171.412 163.9 171.412C161.9 171.412 159 172.901 157.4 175.508L153.5 181.745C153.2 181.559 152.9 181.372 152.7 181.279L152.4 181.559C149.7 184.537 147.6 186.865 143.8 186.865C141.2 186.865 139.7 184.444 141.9 180.907L143 179.138C143.7 179.231 144.4 179.324 145.1 179.324C149.1 179.324 153.7 177.369 156.7 172.529C157.8 170.76 158.2 169.178 158.2 167.781C158.2 164.616 156 162.568 153.2 162.568C151.1 162.568 148.7 163.965 147 166.664L141.1 176.066C138.9 174.949 137.7 172.994 137.7 171.039C137.7 169.457 138.5 167.781 140.1 166.571L138.9 164.523C136.2 166.292 135 168.712 135 171.039C135 173.832 136.7 176.532 139.8 178.021L138.7 179.883C136 184.165 137.6 188.913 142.9 188.913C147.1 188.913 149 187.144 151.6 184.817C150.8 187.051 152 188.913 154.6 188.913C156.1 188.913 158 187.982 159.8 186.585C160 187.982 161.1 188.913 163.1 188.913C164.9 188.913 166.9 187.889 168.8 186.306L167.4 188.54H171.2L177 179.138C182.8 172.436 185.4 173.274 183.7 175.88L178.8 183.793C177.2 186.399 178.3 188.82 181.4 188.82C183.4 188.82 185.7 187.516 187.8 185.654C187.3 187.609 188.3 188.82 190.2 188.82C192 188.82 194.1 187.423 195.8 186.027L193.7 189.378C188.6 190.774 185.4 192.729 185.4 195.429C185.4 198.78 191 199.525 193.7 195.15L196.6 190.495C199.8 189.564 202.9 187.702 206.1 184.724C205.6 189.657 212.6 190.774 216.8 185.748H217.6C219 185.748 220.8 185.282 222.5 184.351L220 188.447H223.8L229.6 179.045C235.4 172.343 238 173.18 236.3 175.787L231.4 183.7C229.8 186.306 230.9 188.726 234 188.726C237.1 188.726 240.7 185.654 243.8 182.21C243.7 182.21 243.1 181.652 242.6 181.465ZM361.2 148.325C358.9 151.77 356.6 153.445 355 153.445C354.2 153.445 353.7 152.887 354.6 151.49L359.9 142.926C361.9 139.668 366 140.506 364.1 143.671L361.2 148.325ZM325 148.512C322.7 151.863 320.5 153.445 318.9 153.445C318.1 153.445 317.6 152.887 318.5 151.49L323.8 142.926C325.8 139.668 329.9 140.506 328 143.671L325 148.512ZM285.1 161.358C284.3 162.661 283 162.475 283 161.544C283 160.613 283.9 159.589 286.8 158.565L285.1 161.358ZM293.1 134.827C294.2 133.059 295.5 132.221 296.5 132.221C302.5 132.221 298 145.626 288.4 143.578H287.6L293.1 134.827ZM370.8 147.953L370.5 148.232C367.8 151.211 365.1 153.538 363.5 153.538C362.7 153.538 362.2 152.98 363.1 151.584L375.9 131.011H372.1L366.5 139.947C365.8 138.923 364.6 138.086 363 138.086C361 138.086 358.1 139.575 356.5 142.181L352.8 148.139C352.7 148.139 352.6 148.046 352.6 148.046L352.3 148.325C349.6 151.304 347.3 153.632 345.6 153.632C344.8 153.632 344.3 153.073 345.2 151.677L350.7 142.74C352.3 140.04 350.8 138.179 348.7 138.179C347.1 138.179 345.4 139.016 343.5 140.785L344.9 138.458H341.1L335.1 148.139C335 148.046 334.9 148.046 334.7 147.953L334.4 148.232C331.7 151.211 329 153.538 327.4 153.538C326.6 153.538 326.1 152.98 327 151.584L333.1 141.623H331C331.1 140.134 329.5 138.086 327 138.086C325 138.086 322.1 139.575 320.5 142.181L316.8 148.046L316.6 148.232C313.9 151.211 310.8 153.538 309.2 153.538C308.4 153.538 307.9 152.98 308.8 151.584L312.6 145.44C313.9 143.299 313.3 142.088 312.1 140.692L310 138.365C309.5 137.713 309.5 136.968 310.2 136.317L308.2 134.362C306.1 136.131 305.9 138.179 307.2 139.761L307.5 140.134C305.8 142.368 303.6 145.347 301.1 148.046C301.2 148.139 301.3 148.232 301.4 148.325C298.3 151.677 295.6 153.818 292.7 155.028L297.5 147.395H293.7L293.3 148.046C291.3 151.304 289 153.632 286.1 153.632C283.5 153.632 283.1 151.211 285.3 147.674L286.4 145.905C287.1 145.998 287.8 146.091 288.5 146.091C301.9 146.091 308.4 129.335 296.6 129.335C294.5 129.335 292.1 130.731 290.4 133.431L284.5 142.833C282.3 141.716 281.1 139.761 281.1 137.806C281.1 136.224 281.9 134.548 283.5 133.338L282.3 131.29C279.6 133.059 278.4 135.479 278.4 137.806C278.4 140.599 280.1 143.299 283.2 144.788L282.1 146.65C279.4 150.932 279.9 155.68 285.3 155.68C286.9 155.68 288.2 155.214 289.4 154.562L288.4 156.145C283.3 157.634 280.1 159.496 280.1 162.196C280.1 165.547 285.7 166.292 288.4 161.917L291.3 157.262C295.2 156.145 299.1 153.632 303.2 149.163C303.1 149.07 303.1 148.977 303 148.791C304.7 146.929 306.1 145.16 309 141.623L309.5 142.181C310 142.74 310.2 143.485 309.7 144.136L305.7 150.56C304.1 153.166 305.2 155.586 308.3 155.586C310.2 155.586 312.6 154.469 314.7 152.794C314.7 154.376 315.8 155.586 318 155.586C319.5 155.586 321.4 154.656 323.2 153.259C323.4 154.656 324.5 155.586 326.5 155.586C328.3 155.586 330.3 154.562 332.2 152.98L330.8 155.214H334.6L340.4 145.812C346.2 139.11 348.8 139.947 347.1 142.554L342.2 150.467C340.6 153.073 341.7 155.493 344.8 155.493C346.8 155.493 348.6 154.19 350.8 152.421C350.6 154.19 351.8 155.493 354.1 155.493C355.6 155.493 357.5 154.562 359.3 153.166C359.5 154.562 360.6 155.493 362.6 155.493C365.7 155.493 369.3 152.421 372.4 148.977C371.9 148.698 371.3 148.139 370.8 147.953ZM258.5 143.019C260.7 139.575 264.5 140.134 262.3 143.764L261.8 144.602C260 147.488 257.5 147.395 256.1 146.929L258.5 143.019ZM255.5 155.68C259.8 155.68 264 152.608 267.2 149.163C266.9 148.698 266.3 148.139 265.8 147.953L265.5 148.232C262.8 151.211 259.3 153.538 256.6 153.538C254.3 153.538 252.9 152.142 254.6 149.349L255 148.698C257.4 149.629 262 149.163 264.8 144.602L265.3 143.764C267.3 140.506 265.4 138.086 262.3 138.086C259.3 138.086 256.8 139.575 255.2 142.181L251.5 148.046C251.5 148.046 251.4 148.046 251.4 147.953L251.1 148.232C248.4 151.211 245.7 153.538 244.1 153.538C243.3 153.538 242.8 152.98 243.7 151.584L249.1 142.647C250.7 139.947 249.2 138.086 247.1 138.086C245.5 138.086 243.7 138.923 241.8 140.785L247.8 131.011H244L233.3 148.232C233.2 148.139 233 148.046 232.9 147.953L232.6 148.232C229.9 151.211 227.2 153.538 225.6 153.538C224.8 153.538 224.3 152.98 225.2 151.584L233.3 138.458H236.4L237.5 136.782H234.4L238 131.011H234.2L230.6 136.782H227.2L226.1 138.458H229.5L221.9 150.746C220.3 153.352 221.4 155.773 224.5 155.773C226.4 155.773 228.4 154.656 230.4 152.98L228.9 155.4H232.7L238.4 146.091C244.2 139.296 246.8 140.134 245.2 142.74L240.3 150.653C238.7 153.259 239.8 155.68 242.9 155.68C245.2 155.68 247.7 154.004 250.2 151.77C250.4 154.004 252.4 155.68 255.5 155.68ZM128 143.019C130.2 139.575 134 140.134 131.8 143.764L131.3 144.602C129.5 147.488 127 147.395 125.6 146.929L128 143.019ZM151.1 151.584L156.4 143.019C158.4 139.761 162.5 140.599 160.6 143.764L157.7 148.605C155.4 151.956 153.2 153.538 151.6 153.538C150.7 153.445 150.2 152.98 151.1 151.584ZM205.1 143.019C207.3 139.575 211.1 140.134 208.9 143.764L208.4 144.602C206.6 147.488 204.2 147.395 202.7 146.929L205.1 143.019ZM147.3 151.863C146.7 153.911 147.9 155.68 150.4 155.68C151.9 155.68 153.8 154.749 155.6 153.352C155.8 154.749 156.9 155.68 158.9 155.68C160.9 155.68 163.1 154.376 165.3 152.608C164.9 154.469 165.8 155.68 167.7 155.68C169.8 155.68 172.1 153.911 173.9 152.328C173.5 154.19 174.7 155.68 177.1 155.68C180.2 155.68 183.8 152.608 186.9 149.163C186.9 149.163 186.8 149.07 186.8 148.977C188.9 146.743 190.7 144.323 192 142.647C190.5 146.277 191.3 152.887 187.7 152.887C186.4 152.887 185.9 151.584 185.9 151.584L183.5 152.701C183.5 152.701 184.2 155.586 187.6 155.586C188 155.586 188.3 155.586 188.7 155.493H188.8C191.6 155.121 194.3 153.538 196.7 151.584C196.8 153.911 198.7 155.586 201.8 155.586C206.1 155.586 210.3 152.514 213.5 149.07C213.2 148.605 212.6 148.046 212.1 147.86L211.8 148.139C209.1 151.118 205.6 153.445 202.9 153.445C200.6 153.445 199.2 152.049 200.9 149.256L201.3 148.605C203.7 149.536 208.3 149.07 211.1 144.509L211.6 143.671C213.6 140.413 211.7 137.992 208.6 137.992C205.5 137.992 203.1 139.482 201.5 142.088L197.8 147.953H197.7L197.4 148.232C196.1 149.722 194.5 150.932 192.9 152.049C194.1 148.698 193.8 143.578 196.2 139.016L193.4 137.62C191.8 139.575 188.4 144.229 185 147.953L185.1 148.046L185 148.232C182.3 151.211 179.6 153.538 178 153.538C177.2 153.538 176.7 152.98 177.6 151.584L185.7 138.458H181.9L175.2 149.349C172.3 151.77 170.1 153.166 169.4 152.794C168.5 152.421 169.4 151.118 169.9 150.373L177.3 138.365H173.5L167.5 148.046C167.4 147.953 167.3 147.953 167.2 147.86L166.9 148.139C164.2 151.118 161.5 153.445 159.9 153.445C159.1 153.445 158.6 152.887 159.5 151.49L165.6 141.53H163.5C163.6 140.04 162 137.992 159.5 137.992C157.5 137.992 154.6 139.482 153 142.088L149.2 148.232C149 148.139 148.8 147.953 148.6 147.86L148.3 148.139C145.6 151.118 142.4 153.445 139.8 153.445C137.5 153.445 136.1 152.049 137.8 149.256L141.7 142.926C143.9 139.482 147.7 140.04 145.5 143.671L145 144.509H148.1L148.6 143.671C150.6 140.413 148.7 137.992 145.6 137.992C142.5 137.992 140.5 139.482 138.9 142.088L135.1 148.046C135 147.953 134.9 147.953 134.8 147.86L134.5 148.139C131.8 151.118 128.6 153.445 125.9 153.445C123.6 153.445 122.2 152.049 123.9 149.256L124.3 148.605C126.7 149.536 131.3 149.07 134.1 144.509L134.6 143.671C136.6 140.413 134.7 137.992 131.6 137.992C128.5 137.992 126.1 139.482 124.5 142.088L120.5 148.419C118.1 152.142 120.2 155.586 124.6 155.586C127.9 155.586 130.6 153.725 133.4 151.304C133.3 153.725 135.3 155.586 138.5 155.586C141.9 155.68 144.6 154.004 147.3 151.863ZM110.4 138.83L113.5 133.99C116.3 129.521 119.8 132.128 117.9 135.479C116.4 137.992 114.3 138.83 110.4 138.83ZM106.3 154.935C104 154.935 102.3 154.469 100.9 153.725C101.6 152.98 102.2 152.142 102.8 151.211L109.2 140.971L110.2 141.064C119 142.74 115.5 154.935 106.3 154.935ZM115.7 140.506C123.3 138.086 123.9 129.242 116.4 129.242C114.3 129.242 111.9 130.638 110.2 133.338L100 149.722C99.6 150.466 99.1 151.118 98.5 151.677C95.9 148.325 96.6 143.299 100.3 141.158L98.8 139.389C90.9 144.043 93.2 157.634 106.4 157.634C117.7 157.634 122.9 144.974 115.7 140.506Z" fill="white"/>
</svg>
