<svg width="188" height="43" viewBox="0 0 188 43" fill="none" xmlns="http://www.w3.org/2000/svg">
<path d="M187.7 35.2915V42.4594H166.9V0.848236H187.7V7.92307H174.5V17.9768H185V25.1447H174.5V35.2915H187.7ZM154.9 0.848236H162.5V42.4594H154.9V21.9797L151.9 32.5919H144.5L141.5 21.9797V42.4594H133.9V0.848236H141.5L148.3 20.9557L154.9 0.848236ZM123 7.92307H117.5V35.1984H123V7.92307ZM126 0.848236C128.5 0.848236 130.7 2.80313 130.7 5.22346V38.0842C130.7 40.5046 128.5 42.4594 126 42.4594H114.6C112 42.4594 109.9 40.4115 109.9 38.0842V5.22346C109.9 2.80313 112 0.848236 114.6 0.848236H126ZM98 27.0996L105.7 25.424V38.0842C105.7 40.5046 103.5 42.4594 101 42.4594H89.6C87 42.4594 84.9 40.4115 84.9 38.0842V5.22346C84.9 2.80313 87 0.848236 89.6 0.848236H101C103.5 0.848236 105.7 2.80313 105.7 5.22346V13.6947L98 15.3703V7.92307H92.5V35.1984H98V27.0996ZM81.2 35.2915V42.4594H63V0.848236H70.6V35.2915H81.2ZM59.8 35.2915V42.4594H39V0.848236H59.8V7.92307H46.6V17.9768H57.1V25.1447H46.6V35.2915H59.8ZM27.6 0.848236H35.3L34 42.4594H19.5L17.5 25.2378L15.5 42.4594H1L0 0.848236H7.60001L8.2 35.2915H9L13.8 0.848236H21.4L26.3 35.2915H27.1L27.6 0.848236Z" fill="#81B3D3"/>
</svg>
